<svg width="1280" height="640" viewBox="0 0 1280 640" fill="none" xmlns="http://www.w3.org/2000/svg">
  <rect width="1280" height="640" rx="32" fill="#E8F7EF"/>
  <rect x="84" y="74" width="1112" height="492" rx="24" fill="#FFFFFF"/>

  <circle cx="278" cy="314" r="136" fill="#DCFCE7"/>
  <rect x="218" y="298" width="120" height="78" rx="12" fill="#16A34A"/>
  <rect x="256" y="250" width="44" height="56" rx="10" fill="#14532D"/>
  <path d="M249 250C249 232 263 218 281 218C299 218 313 232 313 250" stroke="#14532D" stroke-width="14" stroke-linecap="round"/>

  <circle cx="524" cy="278" r="88" fill="#ECFCCB"/>
  <circle cx="524" cy="278" r="45" fill="#84CC16"/>
  <path d="M521 240C542 246 556 267 552 289C547 311 526 326 505 322" stroke="#365314" stroke-width="10" stroke-linecap="round"/>

  <circle cx="736" cy="314" r="136" fill="#CCFBF1"/>
  <path d="M677 354L735 248L793 354H677Z" fill="#0D9488"/>
  <rect x="716" y="352" width="38" height="62" rx="10" fill="#115E59"/>

  <rect x="840" y="214" width="274" height="206" rx="18" fill="#F0FDF4"/>
  <text x="877" y="263" fill="#166534" font-family="Arial, sans-serif" font-size="28" font-weight="700">Voedselhulp</text>
  <text x="877" y="303" fill="#166534" font-family="Arial, sans-serif" font-size="28" font-weight="700">voor iedereen</text>
  <text x="877" y="347" fill="#4B5563" font-family="Arial, sans-serif" font-size="22">Samen delen</text>
  <text x="877" y="378" fill="#4B5563" font-family="Arial, sans-serif" font-size="22">Samen sterker</text>

  <rect x="84" y="74" width="1112" height="492" rx="24" stroke="#A7F3D0" stroke-width="4"/>
</svg>
